<?xml version="1.0" standalone="no"?>
<!DOCTYPE svg PUBLIC "-//W3C//DTD SVG 20010904//EN"
 "http://www.w3.org/TR/2001/REC-SVG-20010904/DTD/svg10.dtd">
<svg version="1.0" xmlns="http://www.w3.org/2000/svg"
 width="109.000000pt" height="57.000000pt" viewBox="0 0 109.000000 57.000000"
 preserveAspectRatio="xMidYMid meet">
<metadata>
Created by potrace 1.16, written by Peter Selinger 2001-2019
</metadata>
<g transform="translate(0.000000,57.000000) scale(0.100000,-0.100000)"
fill="#000000" stroke="none">
<path d="M0 285 l0 -285 545 0 545 0 0 285 0 285 -545 0 -545 0 0 -285z m650
65 c0 -6 -37 -10 -90 -10 l-90 0 0 -30 0 -30 81 0 c51 0 78 -4 74 -10 -3 -5
-40 -10 -81 -10 l-74 0 0 -30 0 -30 96 0 c61 0 93 -4 89 -10 -4 -6 -53 -10
-116 -10 l-109 0 0 90 0 90 110 0 c67 0 110 -4 110 -10z"/> 
</g>
</svg>
